<mxfile host="app.diagrams.net" agent="Mozilla/5.0 (X11; Linux x86_64) AppleWebKit/537.36 (KHTML, like Gecko) Chrome/121.0.0.0 Safari/537.36" version="24.7.5" pages="2">
  <diagram name="Page-1" id="gdLO5mUNSs_LCzh53PB6">
    <mxGraphModel dx="1364" dy="793" grid="1" gridSize="10" guides="1" tooltips="1" connect="1" arrows="1" fold="1" page="1" pageScale="1" pageWidth="827" pageHeight="1169" math="0" shadow="0">
      <root>
        <mxCell id="0" />
        <mxCell id="1" parent="0" />
        <mxCell id="gD_TNdCs6Xpt5fCpfDbr-15" value="" style="edgeStyle=orthogonalEdgeStyle;rounded=0;orthogonalLoop=1;jettySize=auto;html=1;" edge="1" parent="1" source="gD_TNdCs6Xpt5fCpfDbr-1" target="gD_TNdCs6Xpt5fCpfDbr-13">
          <mxGeometry relative="1" as="geometry" />
        </mxCell>
        <mxCell id="gD_TNdCs6Xpt5fCpfDbr-1" value="HLL" style="whiteSpace=wrap;html=1;aspect=fixed;" vertex="1" parent="1">
          <mxGeometry x="100" y="505" width="80" height="80" as="geometry" />
        </mxCell>
        <mxCell id="gD_TNdCs6Xpt5fCpfDbr-22" value="" style="edgeStyle=orthogonalEdgeStyle;rounded=0;orthogonalLoop=1;jettySize=auto;html=1;" edge="1" parent="1" source="gD_TNdCs6Xpt5fCpfDbr-2" target="gD_TNdCs6Xpt5fCpfDbr-17">
          <mxGeometry relative="1" as="geometry" />
        </mxCell>
        <mxCell id="gD_TNdCs6Xpt5fCpfDbr-2" value="Bytecode" style="whiteSpace=wrap;html=1;aspect=fixed;" vertex="1" parent="1">
          <mxGeometry x="400" y="505" width="80" height="80" as="geometry" />
        </mxCell>
        <mxCell id="gD_TNdCs6Xpt5fCpfDbr-9" value="" style="edgeStyle=orthogonalEdgeStyle;rounded=0;orthogonalLoop=1;jettySize=auto;html=1;" edge="1" parent="1" source="gD_TNdCs6Xpt5fCpfDbr-4" target="gD_TNdCs6Xpt5fCpfDbr-8">
          <mxGeometry relative="1" as="geometry" />
        </mxCell>
        <mxCell id="gD_TNdCs6Xpt5fCpfDbr-4" value="MLL" style="whiteSpace=wrap;html=1;aspect=fixed;" vertex="1" parent="1">
          <mxGeometry x="710" y="505" width="80" height="80" as="geometry" />
        </mxCell>
        <mxCell id="gD_TNdCs6Xpt5fCpfDbr-8" value="OUTPUT" style="text;html=1;align=center;verticalAlign=middle;whiteSpace=wrap;rounded=0;" vertex="1" parent="1">
          <mxGeometry x="880" y="530" width="60" height="30" as="geometry" />
        </mxCell>
        <mxCell id="gD_TNdCs6Xpt5fCpfDbr-10" value="Demo.java" style="text;html=1;align=center;verticalAlign=middle;whiteSpace=wrap;rounded=0;" vertex="1" parent="1">
          <mxGeometry x="110" y="475" width="60" height="30" as="geometry" />
        </mxCell>
        <mxCell id="gD_TNdCs6Xpt5fCpfDbr-11" value="Demo.class" style="text;html=1;align=center;verticalAlign=middle;whiteSpace=wrap;rounded=0;" vertex="1" parent="1">
          <mxGeometry x="410" y="475" width="60" height="30" as="geometry" />
        </mxCell>
        <mxCell id="gD_TNdCs6Xpt5fCpfDbr-16" value="" style="edgeStyle=orthogonalEdgeStyle;rounded=0;orthogonalLoop=1;jettySize=auto;html=1;" edge="1" parent="1" source="gD_TNdCs6Xpt5fCpfDbr-13" target="gD_TNdCs6Xpt5fCpfDbr-2">
          <mxGeometry relative="1" as="geometry" />
        </mxCell>
        <mxCell id="gD_TNdCs6Xpt5fCpfDbr-13" value="javac" style="rounded=0;whiteSpace=wrap;html=1;" vertex="1" parent="1">
          <mxGeometry x="230" y="515" width="120" height="60" as="geometry" />
        </mxCell>
        <mxCell id="gD_TNdCs6Xpt5fCpfDbr-24" value="" style="edgeStyle=orthogonalEdgeStyle;rounded=0;orthogonalLoop=1;jettySize=auto;html=1;" edge="1" parent="1" source="gD_TNdCs6Xpt5fCpfDbr-17" target="gD_TNdCs6Xpt5fCpfDbr-4">
          <mxGeometry relative="1" as="geometry" />
        </mxCell>
        <mxCell id="gD_TNdCs6Xpt5fCpfDbr-17" value="java" style="rounded=0;whiteSpace=wrap;html=1;" vertex="1" parent="1">
          <mxGeometry x="530" y="515" width="120" height="60" as="geometry" />
        </mxCell>
        <mxCell id="gD_TNdCs6Xpt5fCpfDbr-18" value="compiler" style="text;html=1;align=center;verticalAlign=middle;whiteSpace=wrap;rounded=0;" vertex="1" parent="1">
          <mxGeometry x="250" y="485" width="60" height="30" as="geometry" />
        </mxCell>
        <mxCell id="gD_TNdCs6Xpt5fCpfDbr-19" value="JVM" style="text;html=1;align=center;verticalAlign=middle;whiteSpace=wrap;rounded=0;" vertex="1" parent="1">
          <mxGeometry x="550" y="485" width="60" height="30" as="geometry" />
        </mxCell>
      </root>
    </mxGraphModel>
  </diagram>
  <diagram id="scELIqjoD1M04AxdnSBl" name="Page-2">
    <mxGraphModel dx="1433" dy="819" grid="1" gridSize="10" guides="1" tooltips="1" connect="1" arrows="1" fold="1" page="1" pageScale="1" pageWidth="827" pageHeight="1169" math="0" shadow="0">
      <root>
        <mxCell id="0" />
        <mxCell id="1" parent="0" />
        <mxCell id="icllskstw8BYMZEW3xFJ-1" value="pom.xml" style="rounded=0;whiteSpace=wrap;html=1;" vertex="1" parent="1">
          <mxGeometry x="120" y="280" width="120" height="60" as="geometry" />
        </mxCell>
        <mxCell id="icllskstw8BYMZEW3xFJ-2" value="Build.gradle" style="rounded=0;whiteSpace=wrap;html=1;" vertex="1" parent="1">
          <mxGeometry x="120" y="370" width="120" height="60" as="geometry" />
        </mxCell>
        <mxCell id="icllskstw8BYMZEW3xFJ-5" value="" style="edgeStyle=orthogonalEdgeStyle;rounded=0;orthogonalLoop=1;jettySize=auto;html=1;" edge="1" parent="1" source="icllskstw8BYMZEW3xFJ-3" target="icllskstw8BYMZEW3xFJ-4">
          <mxGeometry relative="1" as="geometry" />
        </mxCell>
        <mxCell id="icllskstw8BYMZEW3xFJ-33" value="" style="edgeStyle=orthogonalEdgeStyle;rounded=0;orthogonalLoop=1;jettySize=auto;html=1;" edge="1" parent="1" source="icllskstw8BYMZEW3xFJ-3" target="icllskstw8BYMZEW3xFJ-32">
          <mxGeometry relative="1" as="geometry">
            <Array as="points">
              <mxPoint x="280" y="500" />
              <mxPoint x="280" y="990" />
            </Array>
          </mxGeometry>
        </mxCell>
        <mxCell id="icllskstw8BYMZEW3xFJ-3" value="src" style="rounded=0;whiteSpace=wrap;html=1;" vertex="1" parent="1">
          <mxGeometry x="120" y="470" width="120" height="60" as="geometry" />
        </mxCell>
        <mxCell id="icllskstw8BYMZEW3xFJ-7" value="" style="edgeStyle=orthogonalEdgeStyle;rounded=0;orthogonalLoop=1;jettySize=auto;html=1;" edge="1" parent="1" source="icllskstw8BYMZEW3xFJ-4" target="icllskstw8BYMZEW3xFJ-6">
          <mxGeometry relative="1" as="geometry" />
        </mxCell>
        <mxCell id="icllskstw8BYMZEW3xFJ-29" value="" style="edgeStyle=orthogonalEdgeStyle;rounded=0;orthogonalLoop=1;jettySize=auto;html=1;" edge="1" parent="1" source="icllskstw8BYMZEW3xFJ-4" target="icllskstw8BYMZEW3xFJ-28">
          <mxGeometry relative="1" as="geometry">
            <Array as="points">
              <mxPoint x="470" y="500" />
              <mxPoint x="470" y="870" />
            </Array>
          </mxGeometry>
        </mxCell>
        <mxCell id="icllskstw8BYMZEW3xFJ-4" value="main" style="whiteSpace=wrap;html=1;rounded=0;" vertex="1" parent="1">
          <mxGeometry x="320" y="470" width="120" height="60" as="geometry" />
        </mxCell>
        <mxCell id="icllskstw8BYMZEW3xFJ-13" value="" style="edgeStyle=orthogonalEdgeStyle;rounded=0;orthogonalLoop=1;jettySize=auto;html=1;" edge="1" parent="1" source="icllskstw8BYMZEW3xFJ-6" target="icllskstw8BYMZEW3xFJ-12">
          <mxGeometry relative="1" as="geometry">
            <Array as="points">
              <mxPoint x="670" y="500" />
              <mxPoint x="670" y="250" />
            </Array>
          </mxGeometry>
        </mxCell>
        <mxCell id="icllskstw8BYMZEW3xFJ-18" value="" style="edgeStyle=orthogonalEdgeStyle;rounded=0;orthogonalLoop=1;jettySize=auto;html=1;" edge="1" parent="1" source="icllskstw8BYMZEW3xFJ-6" target="icllskstw8BYMZEW3xFJ-16">
          <mxGeometry relative="1" as="geometry">
            <Array as="points">
              <mxPoint x="670" y="500" />
              <mxPoint x="670" y="340" />
            </Array>
          </mxGeometry>
        </mxCell>
        <mxCell id="icllskstw8BYMZEW3xFJ-22" value="" style="edgeStyle=orthogonalEdgeStyle;rounded=0;orthogonalLoop=1;jettySize=auto;html=1;" edge="1" parent="1" source="icllskstw8BYMZEW3xFJ-6" target="icllskstw8BYMZEW3xFJ-21">
          <mxGeometry relative="1" as="geometry">
            <Array as="points">
              <mxPoint x="670" y="500" />
              <mxPoint x="670" y="430" />
            </Array>
          </mxGeometry>
        </mxCell>
        <mxCell id="icllskstw8BYMZEW3xFJ-24" value="" style="edgeStyle=orthogonalEdgeStyle;rounded=0;orthogonalLoop=1;jettySize=auto;html=1;" edge="1" parent="1" source="icllskstw8BYMZEW3xFJ-6" target="icllskstw8BYMZEW3xFJ-23">
          <mxGeometry relative="1" as="geometry">
            <Array as="points">
              <mxPoint x="670" y="500" />
              <mxPoint x="670" y="740" />
            </Array>
          </mxGeometry>
        </mxCell>
        <mxCell id="icllskstw8BYMZEW3xFJ-27" value="" style="edgeStyle=orthogonalEdgeStyle;rounded=0;orthogonalLoop=1;jettySize=auto;html=1;" edge="1" parent="1" source="icllskstw8BYMZEW3xFJ-6" target="icllskstw8BYMZEW3xFJ-14">
          <mxGeometry relative="1" as="geometry">
            <Array as="points">
              <mxPoint x="670" y="500" />
              <mxPoint x="670" y="640" />
            </Array>
          </mxGeometry>
        </mxCell>
        <mxCell id="icllskstw8BYMZEW3xFJ-6" value="java" style="whiteSpace=wrap;html=1;rounded=0;" vertex="1" parent="1">
          <mxGeometry x="520" y="470" width="120" height="60" as="geometry" />
        </mxCell>
        <mxCell id="icllskstw8BYMZEW3xFJ-12" value="controller" style="whiteSpace=wrap;html=1;rounded=0;" vertex="1" parent="1">
          <mxGeometry x="680" y="220" width="120" height="60" as="geometry" />
        </mxCell>
        <mxCell id="icllskstw8BYMZEW3xFJ-14" value="services" style="whiteSpace=wrap;html=1;rounded=0;" vertex="1" parent="1">
          <mxGeometry x="680" y="585" width="120" height="60" as="geometry" />
        </mxCell>
        <mxCell id="icllskstw8BYMZEW3xFJ-16" value="repository" style="whiteSpace=wrap;html=1;rounded=0;" vertex="1" parent="1">
          <mxGeometry x="680" y="310" width="120" height="60" as="geometry" />
        </mxCell>
        <mxCell id="icllskstw8BYMZEW3xFJ-21" value="config" style="whiteSpace=wrap;html=1;rounded=0;" vertex="1" parent="1">
          <mxGeometry x="680" y="400" width="120" height="60" as="geometry" />
        </mxCell>
        <mxCell id="icllskstw8BYMZEW3xFJ-23" value="Main.java" style="whiteSpace=wrap;html=1;rounded=0;" vertex="1" parent="1">
          <mxGeometry x="680" y="700" width="120" height="60" as="geometry" />
        </mxCell>
        <mxCell id="icllskstw8BYMZEW3xFJ-26" value="" style="edgeStyle=orthogonalEdgeStyle;rounded=0;orthogonalLoop=1;jettySize=auto;html=1;" edge="1" parent="1" source="icllskstw8BYMZEW3xFJ-6" target="icllskstw8BYMZEW3xFJ-19">
          <mxGeometry relative="1" as="geometry">
            <mxPoint x="640" y="500" as="sourcePoint" />
            <mxPoint x="740" y="590" as="targetPoint" />
            <Array as="points">
              <mxPoint x="670" y="500" />
              <mxPoint x="670" y="520" />
            </Array>
          </mxGeometry>
        </mxCell>
        <mxCell id="icllskstw8BYMZEW3xFJ-19" value="model" style="whiteSpace=wrap;html=1;rounded=0;" vertex="1" parent="1">
          <mxGeometry x="680" y="490" width="120" height="60" as="geometry" />
        </mxCell>
        <mxCell id="icllskstw8BYMZEW3xFJ-31" value="" style="edgeStyle=orthogonalEdgeStyle;rounded=0;orthogonalLoop=1;jettySize=auto;html=1;" edge="1" parent="1" source="icllskstw8BYMZEW3xFJ-28" target="icllskstw8BYMZEW3xFJ-30">
          <mxGeometry relative="1" as="geometry" />
        </mxCell>
        <mxCell id="icllskstw8BYMZEW3xFJ-28" value="resources" style="whiteSpace=wrap;html=1;rounded=0;" vertex="1" parent="1">
          <mxGeometry x="520" y="840" width="120" height="60" as="geometry" />
        </mxCell>
        <mxCell id="icllskstw8BYMZEW3xFJ-30" value="application.properties" style="whiteSpace=wrap;html=1;rounded=0;" vertex="1" parent="1">
          <mxGeometry x="680" y="840" width="120" height="60" as="geometry" />
        </mxCell>
        <mxCell id="icllskstw8BYMZEW3xFJ-35" value="" style="edgeStyle=orthogonalEdgeStyle;rounded=0;orthogonalLoop=1;jettySize=auto;html=1;" edge="1" parent="1" source="icllskstw8BYMZEW3xFJ-32" target="icllskstw8BYMZEW3xFJ-34">
          <mxGeometry relative="1" as="geometry" />
        </mxCell>
        <mxCell id="icllskstw8BYMZEW3xFJ-37" value="" style="edgeStyle=orthogonalEdgeStyle;rounded=0;orthogonalLoop=1;jettySize=auto;html=1;entryX=0;entryY=0.5;entryDx=0;entryDy=0;" edge="1" parent="1" source="icllskstw8BYMZEW3xFJ-32" target="icllskstw8BYMZEW3xFJ-36">
          <mxGeometry relative="1" as="geometry">
            <Array as="points">
              <mxPoint x="470" y="990" />
              <mxPoint x="470" y="1090" />
            </Array>
          </mxGeometry>
        </mxCell>
        <mxCell id="icllskstw8BYMZEW3xFJ-32" value="test" style="whiteSpace=wrap;html=1;rounded=0;" vertex="1" parent="1">
          <mxGeometry x="320" y="960" width="120" height="60" as="geometry" />
        </mxCell>
        <mxCell id="icllskstw8BYMZEW3xFJ-34" value="java" style="whiteSpace=wrap;html=1;rounded=0;" vertex="1" parent="1">
          <mxGeometry x="520" y="960" width="120" height="60" as="geometry" />
        </mxCell>
        <mxCell id="icllskstw8BYMZEW3xFJ-36" value="resources" style="whiteSpace=wrap;html=1;rounded=0;" vertex="1" parent="1">
          <mxGeometry x="520" y="1060" width="120" height="60" as="geometry" />
        </mxCell>
      </root>
    </mxGraphModel>
  </diagram>
</mxfile>
